<svg xmlns="http://www.w3.org/2000/svg" viewBox="0 0 1024 1024">
  <defs>
    <!-- ============== BACKDROP ============== -->
    <radialGradient id="bgRadial" cx="50%" cy="38%" r="85%">
      <stop offset="0%"  stop-color="#23589a"/>
      <stop offset="32%" stop-color="#0e3163"/>
      <stop offset="72%" stop-color="#06122a"/>
      <stop offset="100%" stop-color="#02050d"/>
    </radialGradient>

    <!-- Backdrop fine noise (carbon-fibre feel) -->
    <filter id="grain" x="0" y="0" width="100%" height="100%">
      <feTurbulence type="fractalNoise" baseFrequency="0.9" numOctaves="2" seed="3" stitchTiles="stitch"/>
      <feColorMatrix values="0 0 0 0 0.05  0 0 0 0 0.05  0 0 0 0 0.05  0 0 0 0.18 0"/>
    </filter>

    <linearGradient id="topSheen" x1="0" y1="0" x2="0" y2="1">
      <stop offset="0%"  stop-color="#ffffff" stop-opacity="0.22"/>
      <stop offset="40%" stop-color="#ffffff" stop-opacity="0"/>
    </linearGradient>

    <radialGradient id="rimGlow" cx="50%" cy="50%" r="50%">
      <stop offset="80%" stop-color="#6495ED" stop-opacity="0"/>
      <stop offset="95%" stop-color="#9bb8ee" stop-opacity="0.55"/>
      <stop offset="100%" stop-color="#6495ED" stop-opacity="0"/>
    </radialGradient>

    <radialGradient id="haloCyan" cx="50%" cy="48%" r="55%">
      <stop offset="0%"  stop-color="#9bb8ee" stop-opacity="0.55"/>
      <stop offset="55%" stop-color="#6495ED" stop-opacity="0.20"/>
      <stop offset="100%" stop-color="#6495ED" stop-opacity="0"/>
    </radialGradient>

    <!-- ============== POLISHED GOLD (banded) ============== -->
    <linearGradient id="goldBanded" x1="0" y1="0" x2="0" y2="1">
      <stop offset="0%"   stop-color="#FFF6CC"/>
      <stop offset="14%"  stop-color="#FFE497"/>
      <stop offset="28%"  stop-color="#E8B25A"/>
      <stop offset="42%"  stop-color="#FFE9A5"/>
      <stop offset="55%"  stop-color="#C28427"/>
      <stop offset="70%"  stop-color="#FFD27A"/>
      <stop offset="86%"  stop-color="#7E5210"/>
      <stop offset="100%" stop-color="#3F2906"/>
    </linearGradient>

    <linearGradient id="goldEdge" x1="0" y1="0" x2="1" y2="1">
      <stop offset="0%"   stop-color="#FFF8DA"/>
      <stop offset="50%"  stop-color="#D9A554"/>
      <stop offset="100%" stop-color="#5A3C0A"/>
    </linearGradient>

    <!-- Specular sweep across star (animated-feel lighting) -->
    <linearGradient id="specSweep" x1="-0.2" y1="-0.5" x2="1.2" y2="0.6">
      <stop offset="35%" stop-color="#ffffff" stop-opacity="0"/>
      <stop offset="48%" stop-color="#ffffff" stop-opacity="0.55"/>
      <stop offset="55%" stop-color="#ffffff" stop-opacity="0"/>
    </linearGradient>

    <!-- ============== GLASS MEDALLION ============== -->
    <radialGradient id="enamelRed" cx="38%" cy="30%" r="85%">
      <stop offset="0%"   stop-color="#ffb3b3"/>
      <stop offset="40%"  stop-color="#d8232a"/>
      <stop offset="80%"  stop-color="#7a0a0a"/>
      <stop offset="100%" stop-color="#3a0303"/>
    </radialGradient>

    <linearGradient id="medGlass" x1="0" y1="0" x2="0" y2="1">
      <stop offset="0%"   stop-color="#ffffff" stop-opacity="0.7"/>
      <stop offset="55%"  stop-color="#ffffff" stop-opacity="0"/>
    </linearGradient>

    <radialGradient id="medRim" cx="50%" cy="50%" r="50%">
      <stop offset="78%" stop-color="#FFD27A" stop-opacity="0"/>
      <stop offset="93%" stop-color="#FFE9A8" stop-opacity="0.9"/>
      <stop offset="100%" stop-color="#7A5310" stop-opacity="0"/>
    </radialGradient>

    <!-- ============== FILTERS ============== -->
    <filter id="dropMain" x="-30%" y="-30%" width="160%" height="160%">
      <feGaussianBlur in="SourceAlpha" stdDeviation="24"/>
      <feOffset dx="0" dy="22"/>
      <feComponentTransfer><feFuncA type="linear" slope="0.6"/></feComponentTransfer>
      <feMerge><feMergeNode/><feMergeNode in="SourceGraphic"/></feMerge>
    </filter>

    <!-- True 3D bevel: feSpecularLighting on the star alpha -->
    <filter id="bevelGold" x="-15%" y="-15%" width="130%" height="130%">
      <feGaussianBlur in="SourceAlpha" stdDeviation="3" result="blur"/>
      <feSpecularLighting in="blur" surfaceScale="6" specularConstant="1.4"
                          specularExponent="22" lighting-color="#fff5d8" result="spec">
        <feDistantLight azimuth="225" elevation="48"/>
      </feSpecularLighting>
      <feComposite in="spec" in2="SourceAlpha" operator="in" result="specMasked"/>
      <feComposite in="SourceGraphic" in2="specMasked" operator="arithmetic"
                   k1="0" k2="1" k3="1" k4="0"/>
    </filter>

    <!-- Bevel for medallion (softer, more glassy) -->
    <filter id="bevelGlass" x="-20%" y="-20%" width="140%" height="140%">
      <feGaussianBlur in="SourceAlpha" stdDeviation="4" result="b"/>
      <feSpecularLighting in="b" surfaceScale="8" specularConstant="2.1"
                          specularExponent="32" lighting-color="#ffffff" result="s">
        <feDistantLight azimuth="225" elevation="55"/>
      </feSpecularLighting>
      <feComposite in="s" in2="SourceAlpha" operator="in" result="m"/>
      <feComposite in="SourceGraphic" in2="m" operator="arithmetic"
                   k1="0" k2="1" k3="0.85" k4="0"/>
    </filter>

    <!-- Inner shadow groove around shield/medallion edge -->
    <filter id="innerGroove" x="-10%" y="-10%" width="120%" height="120%">
      <feGaussianBlur in="SourceAlpha" stdDeviation="4"/>
      <feOffset dx="0" dy="3" result="o"/>
      <feComposite in="o" in2="SourceAlpha" operator="arithmetic" k2="-1" k3="1" result="g"/>
      <feColorMatrix in="g" values="0 0 0 0 0  0 0 0 0 0  0 0 0 0 0  0 0 0 0.45 0"/>
      <feMerge><feMergeNode in="SourceGraphic"/><feMergeNode/></feMerge>
    </filter>

    <filter id="goldGlow" x="-30%" y="-30%" width="160%" height="160%">
      <feGaussianBlur stdDeviation="12" result="g"/>
      <feFlood flood-color="#FFD27A" flood-opacity="0.5"/>
      <feComposite in2="g" operator="in"/>
      <feMerge><feMergeNode/><feMergeNode in="SourceGraphic"/></feMerge>
    </filter>

    <filter id="blueBleed" x="-30%" y="-30%" width="160%" height="160%">
      <feGaussianBlur stdDeviation="20" result="g"/>
      <feFlood flood-color="#6495ED" flood-opacity="0.55"/>
      <feComposite in2="g" operator="in"/>
      <feMerge><feMergeNode/><feMergeNode in="SourceGraphic"/></feMerge>
    </filter>

    <!-- Engraved/embossed effect for the fingerprint ridges -->
    <filter id="engrave" x="-10%" y="-10%" width="120%" height="120%">
      <feGaussianBlur in="SourceAlpha" stdDeviation="0.6" result="b"/>
      <feOffset in="b" dx="0" dy="-1" result="upHL"/>
      <feFlood flood-color="#ffffff" flood-opacity="0.5" result="hi"/>
      <feComposite in="hi" in2="upHL" operator="in" result="topHL"/>
      <feOffset in="b" dx="0" dy="1" result="dnSh"/>
      <feFlood flood-color="#000000" flood-opacity="0.55" result="lo"/>
      <feComposite in="lo" in2="dnSh" operator="in" result="botSh"/>
      <feMerge>
        <feMergeNode in="botSh"/>
        <feMergeNode in="SourceGraphic"/>
        <feMergeNode in="topHL"/>
      </feMerge>
    </filter>

    <clipPath id="squircle">
      <rect x="32" y="32" width="960" height="960" rx="220" ry="220"/>
    </clipPath>

    <!-- Star geometry as reusable symbol -->
    <symbol id="starShape" overflow="visible">
      <polygon points="0,-330 80,-105 320,-105 130,40 200,275 0,135 -200,275 -130,40 -320,-105 -80,-105"/>
    </symbol>

    <!-- Realistic single ridge of fingerprint, used multiple times -->
    <symbol id="ridgePath" overflow="visible">
      <path d="M -78 28 C -78 -52, -42 -88, 0 -88 C 42 -88, 78 -52, 78 28"/>
    </symbol>
  </defs>

  <!-- ===== Backdrop ===== -->
  <rect x="32" y="32" width="960" height="960" rx="220" ry="220" fill="url(#bgRadial)"/>
  <rect x="32" y="32" width="960" height="960" rx="220" ry="220" fill="#000" filter="url(#grain)" opacity="0.55"/>

  <!-- Faint grid -->
  <g clip-path="url(#squircle)" opacity="0.08" stroke="#9bb8ee" stroke-width="1.2">
    <line x1="0" y1="160" x2="1024" y2="160"/>
    <line x1="0" y1="280" x2="1024" y2="280"/>
    <line x1="0" y1="400" x2="1024" y2="400"/>
    <line x1="0" y1="520" x2="1024" y2="520"/>
    <line x1="0" y1="640" x2="1024" y2="640"/>
    <line x1="0" y1="760" x2="1024" y2="760"/>
    <line x1="0" y1="880" x2="1024" y2="880"/>
    <line x1="160" y1="0" x2="160" y2="1024"/>
    <line x1="280" y1="0" x2="280" y2="1024"/>
    <line x1="400" y1="0" x2="400" y2="1024"/>
    <line x1="520" y1="0" x2="520" y2="1024"/>
    <line x1="640" y1="0" x2="640" y2="1024"/>
    <line x1="760" y1="0" x2="760" y2="1024"/>
    <line x1="880" y1="0" x2="880" y2="1024"/>
  </g>

  <!-- Atmospheric fingerprint -->
  <g clip-path="url(#squircle)" opacity="0.15" transform="translate(512 540)" stroke="#9bb8ee" fill="none" stroke-linecap="round" stroke-width="6">
    <path d="M0 -340 C -210 -340 -340 -210 -340 0 C -340 210 -210 340 0 340"/>
    <path d="M0 -280 C -170 -280 -280 -170 -280 0 C -280 170 -170 280 0 280"/>
    <path d="M0 -220 C -130 -220 -220 -130 -220 0 C -220 130 -130 220 0 220"/>
    <path d="M0 -160 C -90 -160 -160 -90 -160 0 C -160 90 -90 160 0 160"/>
    <path d="M0 -340 C 210 -340 340 -210 340 0 C 340 210 210 340 0 340"/>
    <path d="M0 -280 C 170 -280 280 -170 280 0 C 280 170 170 280 0 280"/>
    <path d="M0 -220 C 130 -220 220 -130 220 0 C 220 130 130 220 0 220"/>
    <path d="M0 -160 C 90 -160 160 -90 160 0 C 160 90 90 160 0 160"/>
  </g>

  <!-- Reticle -->
  <g clip-path="url(#squircle)" opacity="0.55">
    <circle cx="512" cy="512" r="438" fill="none" stroke="#6495ED" stroke-width="2.5" stroke-dasharray="2 9"/>
    <circle cx="512" cy="512" r="392" fill="none" stroke="#6495ED" stroke-width="1.5" opacity="0.7"/>
    <g stroke="#6495ED" stroke-width="4" stroke-linecap="round" opacity="0.9">
      <line x1="512" y1="58"  x2="512" y2="100"/>
      <line x1="512" y1="924" x2="512" y2="966"/>
      <line x1="58"  y1="512" x2="100" y2="512"/>
      <line x1="924" y1="512" x2="966" y2="512"/>
    </g>
  </g>

  <rect x="32" y="32" width="960" height="960" rx="220" ry="220" fill="url(#haloCyan)"/>
  <rect x="32" y="32" width="960" height="960" rx="220" ry="220" fill="url(#rimGlow)"/>

  <!-- ===== STAR ===== -->
  <g transform="translate(512 520)" filter="url(#dropMain)">
    <!-- ambient blue silhouette glow -->
    <g filter="url(#blueBleed)" opacity="0.85">
      <use href="#starShape" fill="#6495ED" opacity="0.6"/>
    </g>

    <!-- gold body with metallic banding -->
    <g filter="url(#goldGlow)">
      <use href="#starShape"
           fill="url(#goldBanded)"
           stroke="url(#goldEdge)"
           stroke-width="6"
           stroke-linejoin="round"/>
    </g>

    <!-- specular bevel pass: re-stamp star with feSpecularLighting -->
    <use href="#starShape" fill="url(#goldBanded)" filter="url(#bevelGold)"/>

    <!-- diagonal specular sweep (catches the eye) -->
    <use href="#starShape" fill="url(#specSweep)" opacity="0.85"/>

    <!-- inner border (engraved) -->
    <polygon
      points="0,-298 70,-95 286,-95 116,38 178,248 0,120 -178,248 -116,38 -286,-95 -70,-95"
      fill="none" stroke="#FFE9A8" stroke-opacity="0.55" stroke-width="2.5"/>
    <polygon
      points="0,-294 68,-93 280,-93 114,40 175,243 0,118 -175,243 -114,40 -280,-93 -68,-93"
      fill="none" stroke="#5A3C0A" stroke-opacity="0.45" stroke-width="1.5"/>

    <!-- Star tips: tiny highlight dots -->
    <circle cx="0"   cy="-310" r="6" fill="#fff" opacity="0.85"/>
    <circle cx="304" cy="-92"  r="5" fill="#fff" opacity="0.7"/>
    <circle cx="-304" cy="-92" r="5" fill="#fff" opacity="0.7"/>
    <circle cx="190" cy="262"  r="5" fill="#fff" opacity="0.6"/>
    <circle cx="-190" cy="262" r="5" fill="#fff" opacity="0.6"/>

    <!-- ===== ENAMEL MEDALLION ===== -->
    <g>
      <!-- gold bezel -->
      <circle r="118" fill="#7A5310"/>
      <circle r="115" fill="url(#enamelRed)" filter="url(#bevelGlass)"/>
      <!-- gold rim ring -->
      <circle r="115" fill="none" stroke="#FFD27A" stroke-width="6"/>
      <circle r="115" fill="none" stroke="url(#medRim)" stroke-width="14" opacity="0.85"/>
      <!-- inner groove -->
      <circle r="103" fill="none" stroke="#000" stroke-opacity="0.4" stroke-width="1.5" filter="url(#innerGroove)"/>

      <!-- glass dome highlight (top-half) -->
      <ellipse cx="0" cy="-30" rx="92" ry="58" fill="url(#medGlass)" opacity="0.85"/>
      <ellipse cx="-30" cy="-58" rx="40" ry="14" fill="#fff" opacity="0.55"/>

      <!-- Realistic fingerprint with minutiae -->
      <g stroke="#FFE9A8" fill="none" stroke-linecap="round"
         filter="url(#engrave)">
        <!-- outermost ridge — has a break (minutia) on right -->
        <path d="M -78 28 C -78 -52, -42 -88, 0 -88 C 42 -88, 78 -52, 78 28"
              stroke-width="5" stroke-dasharray="160 5 60 0" opacity="0.95"/>
        <path d="M -62 32 C -62 -42, -32 -72, 0 -72 C 32 -72, 62 -42, 62 32"
              stroke-width="5" opacity="0.92"/>
        <!-- ridge ending on left -->
        <path d="M -46 36 C -46 -32, -22 -56, 0 -56 C 22 -56, 46 -32, 46 36"
              stroke-width="5" stroke-dasharray="20 6 200" opacity="0.9"/>
        <path d="M -30 40 C -30 -22, -14 -40, 0 -40 C 14 -40, 30 -22, 30 40"
              stroke-width="4.5" opacity="0.88"/>
        <!-- bifurcation arc (forks) -->
        <path d="M -14 42 C -14 -12, -6 -24, 0 -24 C 6 -24, 14 -12, 14 42"
              stroke-width="4" opacity="0.85"/>
        <path d="M -4 -8 C -2 -6, 2 -6, 4 -8"
              stroke-width="3.5" opacity="0.8"/>
        <!-- horizontal scar/break across bottom -->
        <path d="M -88 50 L -64 56" stroke-width="4" opacity="0.75"/>
        <path d="M  88 50 L  64 56" stroke-width="4" opacity="0.75"/>
        <path d="M -52 64 L -38 66" stroke-width="3" opacity="0.65"/>
        <path d="M  52 64 L  38 66" stroke-width="3" opacity="0.65"/>
        <!-- core dot -->
        <circle cx="0" cy="-2" r="3" fill="#FFE9A8" stroke="none"/>
      </g>
    </g>
  </g>

  <!-- Top sheen + crisp borders -->
  <rect x="32" y="32" width="960" height="960" rx="220" ry="220" fill="url(#topSheen)"/>
  <rect x="33" y="33" width="958" height="958" rx="219" ry="219"
        fill="none" stroke="#ffffff" stroke-opacity="0.10" stroke-width="2"/>
  <rect x="40" y="40" width="944" height="944" rx="214" ry="214"
        fill="none" stroke="#000000" stroke-opacity="0.40" stroke-width="2"/>
</svg>
